<svg id="visual" viewBox="0 0 400 400" width="400" height="400" xmlns="http://www.w3.org/2000/svg" xmlns:xlink="http://www.w3.org/1999/xlink" version="1.1"><g transform="translate(198.4209383049147 202.31272394408703)"><path d="M58.1 -66.6C73.4 -56.5 82.5 -36.3 80.8 -18.3C79.1 -0.3 66.6 15.5 55.5 29.4C44.3 43.4 34.5 55.5 20.9 62.8C7.3 70.2 -10 72.7 -26.5 68.6C-43.1 64.5 -58.8 53.7 -68.2 38.7C-77.6 23.7 -80.6 4.5 -75.1 -10.8C-69.5 -26.2 -55.3 -37.6 -41.4 -48C-27.4 -58.4 -13.7 -67.7 3.9 -72.3C21.4 -76.9 42.9 -76.7 58.1 -66.6" fill="#184b46"></path></g></svg>